<svg width="24" height="18" viewBox="0 0 24 18" fill="none" xmlns="http://www.w3.org/2000/svg">
<path d="M16.5 7.57514C16.5 7.77548 16.421 7.96761 16.2803 8.10927C16.1397 8.25093 15.9489 8.33051 15.75 8.33051H8.25C8.05109 8.33051 7.86032 8.25093 7.71967 8.10927C7.57902 7.96761 7.5 7.77548 7.5 7.57514C7.5 7.37481 7.57902 7.18268 7.71967 7.04102C7.86032 6.89936 8.05109 6.81978 8.25 6.81978H15.75C15.9489 6.81978 16.1397 6.89936 16.2803 7.04102C16.421 7.18268 16.5 7.37481 16.5 7.57514ZM15.75 9.84124H8.25C8.05109 9.84124 7.86032 9.92083 7.71967 10.0625C7.57902 10.2041 7.5 10.3963 7.5 10.5966C7.5 10.7969 7.57902 10.9891 7.71967 11.1307C7.86032 11.2724 8.05109 11.352 8.25 11.352H15.75C15.9489 11.352 16.1397 11.2724 16.2803 11.1307C16.421 10.9891 16.5 10.7969 16.5 10.5966C16.5 10.3963 16.421 10.2041 16.2803 10.0625C16.1397 9.92083 15.9489 9.84124 15.75 9.84124ZM24 6.81978V9.08588C23.9975 9.88645 23.6807 10.6535 23.1186 11.2196C22.5565 11.7857 21.7949 12.1049 21 12.1073H20.5125C19.8938 13.467 18.7031 14.6567 16.9875 15.6198C15.0094 16.7245 12.9 17.225 12.3094 17.3477L12 17.376L11.6906 17.3477C11.1 17.225 8.99063 16.7245 7.0125 15.6198C5.29688 14.6567 4.10625 13.467 3.4875 12.1073H3C2.20511 12.1049 1.44349 11.7857 0.881411 11.2196C0.319337 10.6535 0.00247246 9.88645 0 9.08588V6.81978C0.00247246 6.0192 0.319337 5.25212 0.881411 4.68603C1.44349 4.11993 2.20511 3.8008 3 3.79831H3.09375C3.1699 3.59445 3.28892 3.40959 3.44265 3.25639C3.59637 3.1032 3.78117 2.98529 3.98438 2.91075L11.4844 0.163107C11.8173 0.0403575 12.1827 0.0403575 12.5156 0.163107L20.0156 2.91075C20.2188 2.98529 20.4036 3.1032 20.5574 3.25639C20.7111 3.40959 20.8301 3.59445 20.9062 3.79831H21C21.7949 3.8008 22.5565 4.11993 23.1186 4.68603C23.6807 5.25212 23.9975 6.0192 24 6.81978ZM3.05625 10.5966C3.01854 10.3466 2.99974 10.0941 3 9.84124V5.30904C2.60218 5.30904 2.22064 5.46821 1.93934 5.75153C1.65804 6.03485 1.5 6.41911 1.5 6.81978V9.08588C1.5 9.48655 1.65804 9.87081 1.93934 10.1541C2.22064 10.4374 2.60218 10.5966 3 10.5966H3.05625ZM19.5 9.84124V4.32707L12 1.57942L4.5 4.32707V9.84124C4.5 14.1657 11.2313 15.7048 12 15.8653C12.7687 15.7048 19.5 14.1657 19.5 9.84124ZM22.5 6.81978C22.5 6.41911 22.342 6.03485 22.0607 5.75153C21.7794 5.46821 21.3978 5.30904 21 5.30904V9.84124C21.0003 10.0941 20.9815 10.3466 20.9437 10.5966H21C21.3978 10.5966 21.7794 10.4374 22.0607 10.1541C22.342 9.87081 22.5 9.48655 22.5 9.08588V6.81978Z" fill="#019549"/>
</svg>
