<svg width="24" height="24" viewBox="0 0 24 24" fill="none" xmlns="http://www.w3.org/2000/svg">
<path opacity="0.2" d="M20.3 12.5925C20.3 17.3925 13.3 19.0925 12.2 19.2925C12.1 19.2925 12 19.2925 11.9 19.2925C10.8 19.0925 3.80005 17.3925 3.80005 12.5925V7.19253C3.80005 6.99253 3.80005 6.89253 3.90005 6.79253C4.00005 6.59253 4.10005 6.49253 4.20005 6.49253L11.7 3.79253C11.9 3.69253 12 3.69253 12.2 3.79253L19.7 6.49253C19.8 6.59253 20 6.59253 20.1 6.79253C20.2 6.89253 20.2001 7.09253 20.2001 7.19253L20.3 12.5925Z" fill="#019549"/>
<path d="M16.5 10.3926C16.5 10.5926 16.4 10.7926 16.3 10.8926C16.2 10.9926 16 11.0926 15.8 11.0926H8.3C8.1 11.0926 7.9 10.9926 7.8 10.8926C7.7 10.7926 7.6 10.5926 7.6 10.3926C7.6 10.1926 7.7 9.99258 7.8 9.89258C7.9 9.79258 8.1 9.69258 8.3 9.69258H15.8C16 9.69258 16.2 9.79258 16.3 9.89258C16.4 9.99258 16.5 10.1926 16.5 10.3926ZM15.8 12.5926H8.3C8.1 12.5926 7.9 12.6926 7.8 12.7926C7.7 12.8926 7.6 13.0926 7.6 13.2926C7.6 13.4926 7.7 13.6926 7.8 13.7926C7.9 13.8926 8.1 13.9926 8.3 13.9926H15.8C16 13.9926 16.2 13.8926 16.3 13.7926C16.4 13.6926 16.5 13.4926 16.5 13.2926C16.5 13.0926 16.4 12.8926 16.3 12.7926C16.1 12.6926 15.9 12.5926 15.8 12.5926ZM24 9.59258V11.8926C24 12.6926 23.7 13.4926 23.1 13.9926C22.6 14.5926 21.8 14.8926 21 14.8926H20.5C19.9 16.1926 18.7 17.3926 17 18.3926C15 19.4926 12.9 19.9926 12.3 20.0926H12H11.7C11.1 19.9926 9 19.4926 7 18.3926C5.3 17.3926 4.1 16.2926 3.5 14.8926H3C2.2 14.8926 1.4 14.5926 0.9 13.9926C0.3 13.4926 0 12.6926 0 11.8926V9.59258C0 8.89258 0.3 8.09258 0.9 7.49258C1.4 6.99258 2.2 6.69258 3 6.59258H3.1C3.2 6.39258 3.3 6.19258 3.4 6.09258C3.6 5.99258 3.8 5.79258 4 5.79258L11.5 3.09258C11.8 2.99258 12.2 2.99258 12.5 3.09258L20 5.79258C20.2 5.89258 20.4 5.99258 20.5 6.09258C20.7 6.29258 20.8 6.39258 20.8 6.59258H21C21.8 6.59258 22.6 6.89258 23.1 7.49258C23.7 8.09258 24 8.89258 24 9.59258ZM3.1 13.3926C3 13.1926 3 12.8926 3 12.5926V8.09258C2.6 8.09258 2.2 8.29258 1.9 8.49258C1.7 8.89258 1.5 9.29258 1.5 9.59258V11.8926C1.5 12.2926 1.7 12.6926 1.9 12.9926C2.2 13.1926 2.6 13.3926 3.1 13.3926ZM19.5 12.5926V7.19258L12 4.39258L4.5 7.19258V12.6926C4.5 16.9926 11.2 18.4926 12 18.6926C12.8 18.4926 19.5 16.8926 19.5 12.5926ZM22.5 9.59258C22.5 9.19258 22.3 8.79258 22.1 8.49258C21.8 8.19258 21.4 8.09258 21 8.09258V12.5926C21 12.8926 21 13.0926 20.9 13.3926H21C21.4 13.3926 21.8 13.1926 22.1 12.9926C22.4 12.6926 22.5 12.2926 22.5 11.8926V9.59258Z" fill="#019549"/>
<path d="M2.69995 2.69263L20.5 20.9926" stroke="#019549" stroke-width="2" stroke-miterlimit="10" stroke-linecap="round" stroke-linejoin="round"/>
</svg>
