<svg width="24" height="24" viewBox="0 0 24 24" fill="none" xmlns="http://www.w3.org/2000/svg">
<g clip-path="url(#clip0_87_113)">
<path d="M11.0001 7.79998L9.00011 5.79998V4.99998C9.00011 3.33998 10.3401 1.99998 12.0001 1.99998C13.6601 1.99998 15.0001 3.33998 15.0001 4.99998V11.8L11.2001 7.99998H13.0001V4.99998C13.0001 4.44998 12.5501 3.99998 12.0001 3.99998C11.4501 3.99998 11.0001 4.44998 11.0001 4.99998V7.79998ZM22.1101 21.46L2.39011 1.72998L1.11011 2.99998L9.00011 10.89V13C8.47449 13.3937 8.03164 13.8872 7.69688 14.4522C7.36212 15.0171 7.142 15.6426 7.04913 16.2927C6.95625 16.9428 6.99244 17.6049 7.15562 18.241C7.31879 18.8771 7.60576 19.4748 8.00011 20C8.39382 20.5256 8.88729 20.9684 9.45228 21.3032C10.0173 21.638 10.6427 21.8581 11.2928 21.951C11.9429 22.0438 12.605 22.0076 13.2411 21.8445C13.8772 21.6813 14.475 21.3943 15.0001 21C15.8401 20.37 16.4001 19.5 16.7101 18.6L20.8401 22.73L22.1101 21.46Z" fill="#019549"/>
</g>
<defs>
<clipPath id="clip0_87_113">
<rect width="24" height="24" fill="white"/>
</clipPath>
</defs>
</svg>
